<?xml version="1.0" encoding="utf-8"?>
<!-- Svg Vector Icons : http://www.onlinewebfonts.com/icon -->
<!DOCTYPE svg PUBLIC "-//W3C//DTD SVG 1.1//EN" "http://www.w3.org/Graphics/SVG/1.1/DTD/svg11.dtd">
<svg version="1.1" xmlns="http://www.w3.org/2000/svg" xmlns:xlink="http://www.w3.org/1999/xlink" x="0px" y="0px" viewBox="0 0 1000 1000" enable-background="new 0 0 1000 1000" xml:space="preserve">
<metadata> Svg Vector Icons : http://www.onlinewebfonts.com/icon </metadata>
<g><path d="M206.6,513.7l59.8-73l342,280.5l-59.8,73L206.6,513.7L206.6,513.7z"/><path d="M596.4,686.9c0.6-0.6,1.2-1.3,1.8-2l62.2-75.8c22.4-27.4,18.5-67.7-8.9-90.2l-22.9-18.8l19-23.2l3.6,2.9c21.4,17.5,52.8,14.4,70.3-6.9c17.6-21.4,14.5-52.9-6.9-70.4l-3.6-2.9l13.2-16.1l3.6,2.9c21.4,17.5,52.8,14.4,70.3-6.9c17.5-21.3,14.4-52.8-7-70.3l-3.6-2.9l15.2-18.6l3.6,2.9c21.4,17.5,52.9,14.3,70.4-7c17.5-21.3,14.4-52.8-6.9-70.3L713.5,85.2c-21.4-17.5-52.9-14.4-70.4,6.9c-17.5,21.3-14.4,52.9,7,70.4l3.6,2.9l-15.2,18.6l-3.6-2.9c-21.4-17.5-52.9-14.5-70.3,6.9c-17.5,21.3-14.4,52.8,7,70.4l3.6,2.9l-13.2,16.1l-3.6-3c-21.4-17.5-52.9-14.5-70.4,7c-17.5,21.3-14.3,52.8,7,70.3l3.6,2.9l-19,23.2l-22.9-18.8c-27.4-22.5-67.8-18.5-90.2,8.9l-62.2,75.8c-0.6,0.7-1.1,1.5-1.6,2.1L596.4,686.9z M687.5,161.7l97.6,111.4l-112.9-92.6L687.5,161.7z M601.5,263.5l97.4,111.4L586,282.3L601.5,263.5z M511.7,372.9l97.4,111.4l-112.9-92.6L511.7,372.9z"/><path d="M396.5,864.9l-43.1-35.3l75.3-91.8l43.1,35.3L396.5,864.9L396.5,864.9z"/><path d="M84.5,893.3l145.9,80.4c3.6-2.9,7-6.2,10.1-9.9l7.4-9L89.7,867.6C86.4,875.9,84.6,884.6,84.5,893.3z"/><path d="M100.7,849.2c-1.1,1.4-2.1,2.8-3.3,4.3l160.8,88.6l15.8-19.3l-161-88.7L100.7,849.2z"/><path d="M123.5,821.4l160.9,88.8l19.1-23.3L142.7,798L123.5,821.4z"/><path d="M153.1,785.4l161,88.7l15.8-19.3l-161-88.7L153.1,785.4z"/><path d="M196,733l-16.7,20.3l158,87.2l-137-112.4C198.9,729.7,197.4,731.3,196,733z"/><path d="M110.7,950.3l28.6,23.5c21.9,18,51.1,20.8,75.3,9.8L86.9,913.1C90.6,927.2,98.6,940.3,110.7,950.3z"/><path d="M225.7,724.8L301,633l112.9,92.6l-75.3,91.8L225.7,724.8z"/><path d="M903.4,97.7c18.8-22.9,15.5-56.7-7.5-75.5c-23-18.8-56.8-15.4-75.6,7.4l-51.5,62.8l83,68.1L903.4,97.7z"/><path d="M210.7,712.5l-43.6-35.8l75.3-91.8l43.6,35.8L210.7,712.5z"/></g>
</svg>