<?xml version="1.0" encoding="utf-8"?>
<!-- Svg Vector Icons : http://www.onlinewebfonts.com/icon -->
<!DOCTYPE svg PUBLIC "-//W3C//DTD SVG 1.1//EN" "http://www.w3.org/Graphics/SVG/1.1/DTD/svg11.dtd">
<svg version="1.1" xmlns="http://www.w3.org/2000/svg" xmlns:xlink="http://www.w3.org/1999/xlink" x="0px" y="0px" viewBox="0 0 1000 1000" enable-background="new 0 0 1000 1000" xml:space="preserve">
<metadata> Svg Vector Icons : http://www.onlinewebfonts.com/icon </metadata>
<g><path d="M549.5,659.1c2,25.6,0,60.6-0.6,70.1c-1.9,32.7-20,34.9-20,39.1c0,2,0,4.6,9.3,6c30.3,4.6,44.8-15.8,44.8-40.9v-89.2l40.3-0.3c25.3,0.2,50,5.1,53.1,32.6c23.5,132.8,18,68.4,39.3,219c1.4,6.2-0.5,11.7-5.5,16.5c-2,21.9,5.5,29,18.2,27.7l2.5-0.4l6.9,48.2c0.2,1.6,1.7,2.8,3.4,2.6l30.5-3.7c1.6-0.2,2.8-1.7,2.7-3.4l-3.5-49.4l11.6-5l20.4,27.7c1.1,2.3,3.9,3.4,6.2,2.2l20.7-9.7c2.3-1.1,3.3-3.9,2.2-6.2l-12.3-31.6l10-4.7c12-175.5-111.2-252.4-62.1-264.6c26.9-1.7,42.4-12.3,46.4-31.8c3-14.3,2.6-15.1-10.6-15.1l-62,0.1l-1.1-29.9h46.1c3.2,0,5.7-2.6,5.7-5.7v-36.9c0-3.2-2.6-5.7-5.7-5.7c-20.7,0-41.4,0-62.1,0c-1.3-14.7-1.5-11.6-2.9-26.2c-3.5-18.9-10.4-20.8-31.4-20.7l-174,0.6l6-8.5l13.2-1.9c61.1-65.2,114-5.7,169.8-86.7l117.5-170.6l9.1,6.3l24-34.7c8.7-12.7,5.5-30.3-7.3-39.1L673.6,14.9c-12.7-8.8-30.3-5.5-39.1,7.2l-23.9,34.7l8.3,5.7L501.4,233.1c-55.7,80.9,18.8,109-20.4,189.5l2.5,12.5c0.2,0.1-32.6,46.4-35.7,50.8h-13c-9.2-0.3-12.5,5.2-11.8,15v2.2H377l-21.9-22.3h-43.8v22.5l25.4,12.2v19.3h-9.9v28.6h9.9v17.4l-25.4,12.2v23.7h43.5l22.2-22.8H423v10.2l30.6,24.2c10.9,8.9,23.5,11.3,37.7,7.2l31.2-6.9C537.8,632.5,548.3,643,549.5,659.1L549.5,659.1z M161.3,584.4c-12,0-21.7,9.7-21.7,21.7c0,12,9.7,21.8,21.7,21.8c12,0,21.7-9.7,21.7-21.8C183,594.1,173.3,584.4,161.3,584.4L161.3,584.4z M161.3,525.7c-12,0-21.7,9.7-21.7,21.7c0,12,9.7,21.7,21.7,21.7c12,0,21.7-9.7,21.7-21.7C183,535.5,173.3,525.7,161.3,525.7L161.3,525.7z M161.3,467.1c-12,0-21.7,9.7-21.7,21.7c0,12,9.7,21.8,21.7,21.8c12,0,21.7-9.7,21.7-21.8C183,476.8,173.3,467.1,161.3,467.1L161.3,467.1z M215.1,555.1c-12,0-21.7,9.7-21.7,21.7s9.7,21.7,21.7,21.7c12,0,21.7-9.7,21.7-21.7S227,555.1,215.1,555.1L215.1,555.1z M215.1,496.4c-12,0-21.7,9.8-21.7,21.8c0,12,9.7,21.7,21.7,21.7c12,0,21.7-9.7,21.7-21.7C236.8,506.2,227,496.4,215.1,496.4L215.1,496.4z M268.8,525.7c-12,0-21.7,9.7-21.7,21.7c0,12,9.7,21.7,21.7,21.7c12,0,21.7-9.7,21.7-21.7C290.5,535.5,280.8,525.7,268.8,525.7z"/></g>
</svg>